<?xml version="1.0" standalone="no"?>
<!DOCTYPE svg PUBLIC "-//W3C//DTD SVG 20010904//EN"
 "http://www.w3.org/TR/2001/REC-SVG-20010904/DTD/svg10.dtd">
<svg id="empty" version="1.0" xmlns="http://www.w3.org/2000/svg"
 width="339.000000pt" height="288.000000pt" viewBox="0 0 339.000000 288.000000"
 preserveAspectRatio="xMidYMid meet">

<g transform="translate(0.000000,288.000000) scale(0.100000,-0.100000)"
fill="#000000" stroke="none">
<path d="M1320 2280 c0 -5 5 -10 10 -10 6 0 10 5 10 10 0 6 -4 10 -10 10 -5 0
-10 -4 -10 -10z"/>
<path d="M2120 2230 c0 -5 5 -10 10 -10 6 0 10 5 10 10 0 6 -4 10 -10 10 -5 0
-10 -4 -10 -10z"/>
<path d="M1397 2042 l-157 -157 110 -110 c104 -104 110 -108 128 -92 14 13 21
14 30 5 18 -18 15 -32 -17 -62 -26 -25 -28 -32 -20 -59 5 -18 18 -45 30 -60
19 -26 19 -30 5 -46 -10 -11 -26 -16 -40 -14 -24 5 -56 -19 -56 -42 0 -19 28
-45 49 -45 26 0 44 26 39 55 -3 16 1 30 13 41 17 15 20 15 44 -4 14 -12 42
-26 62 -33 33 -11 37 -9 69 22 32 31 35 32 51 16 15 -15 16 -18 0 -35 -16 -17
-11 -24 93 -127 l110 -110 157 158 158 157 -110 110 c-103 104 -110 109 -127
93 -17 -16 -20 -15 -35 0 -16 16 -14 20 34 70 l52 52 -18 40 c-10 22 -25 46
-34 54 -26 21 -20 31 16 31 37 0 57 15 57 42 0 22 -42 50 -64 42 -18 -7 -32
-47 -22 -63 14 -22 -16 -20 -46 3 -59 44 -77 43 -128 -9 -46 -47 -58 -53 -78
-33 -9 9 -8 16 5 30 16 18 12 24 -93 129 l-109 109 -158 -158z m187 105 c8
-12 5 -21 -9 -37 l-19 -21 -20 20 c-19 20 -19 21 -1 41 21 23 33 22 49 -3z
m-50 -50 c8 -12 5 -21 -9 -37 l-19 -21 -20 20 c-19 20 -19 21 -1 41 21 23 33
22 49 -3z m100 1 c8 -13 6 -22 -9 -37 -17 -20 -19 -20 -37 -5 -21 20 -23 35
-6 52 16 16 38 12 52 -10z m-154 -43 c26 -32 -18 -71 -48 -42 -14 15 -14 18 3
37 22 24 29 25 45 5z m104 -7 c8 -14 7 -21 -6 -34 -30 -30 -75 9 -48 42 16 18
39 15 54 -8z m100 0 c8 -14 7 -21 -6 -34 -30 -30 -75 9 -48 42 16 18 39 15 54
-8z m-252 -45 c17 -15 17 -17 2 -35 -21 -22 -37 -23 -54 -3 -10 13 -10 19 5
35 22 24 24 24 47 3z m102 -5 c8 -14 7 -21 -6 -34 -30 -30 -75 9 -48 42 16 18
39 15 54 -8z m100 0 c8 -14 7 -21 -6 -34 -30 -30 -75 9 -48 42 16 18 39 15 54
-8z m100 0 c8 -14 7 -21 -6 -34 -30 -30 -75 9 -48 42 16 18 39 15 54 -8z m179
-19 c57 -30 142 -137 124 -156 -9 -9 -65 17 -99 45 -28 23 -68 90 -68 112 0
13 16 13 43 -1z m-531 -26 c17 -15 17 -17 2 -35 -21 -22 -37 -23 -54 -3 -10
13 -10 19 5 35 22 24 24 24 47 3z m102 -5 c8 -14 7 -21 -6 -34 -30 -30 -75 9
-48 42 16 18 39 15 54 -8z m100 0 c8 -14 7 -21 -6 -34 -30 -30 -75 9 -48 42
16 18 39 15 54 -8z m100 0 c8 -14 7 -21 -6 -34 -30 -30 -75 9 -48 42 16 18 39
15 54 -8z m180 -13 c9 -37 72 -102 112 -117 19 -6 34 -15 34 -18 0 -3 -40 -45
-88 -93 l-89 -89 -39 17 c-52 22 -83 51 -106 104 l-20 44 88 88 c49 49 92 89
95 89 4 0 10 -11 13 -25z m-113 -21 c11 -13 -3 -30 -96 -124 -104 -104 -110
-109 -127 -93 -18 16 -14 22 89 125 59 59 111 108 114 108 4 0 12 -7 20 -16z
m-417 -12 c15 -18 15 -20 -4 -37 -19 -17 -21 -17 -40 0 -19 17 -19 19 -4 37
10 10 20 18 24 18 4 0 14 -8 24 -18z m100 0 c15 -18 15 -20 -4 -37 -32 -29
-78 6 -50 40 17 20 33 19 54 -3z m100 -4 c8 -14 7 -21 -6 -34 -30 -30 -75 9
-48 42 16 18 39 15 54 -8z m100 0 c8 -14 7 -21 -6 -34 -30 -30 -75 9 -48 42
16 18 39 15 54 -8z m-250 -46 c15 -18 15 -20 -4 -37 -20 -18 -21 -18 -42 3
-18 17 -19 23 -8 36 17 21 33 20 54 -2z m100 -4 c8 -14 7 -21 -6 -34 -30 -30
-75 9 -48 42 16 18 39 15 54 -8z m100 0 c8 -14 7 -21 -6 -34 -30 -30 -75 9
-48 42 16 18 39 15 54 -8z m-150 -46 c15 -18 15 -20 -4 -37 -20 -18 -21 -18
-42 3 -18 17 -19 23 -8 36 17 21 33 20 54 -2z m100 -4 c8 -14 7 -21 -6 -34
-30 -30 -75 9 -48 42 16 18 39 15 54 -8z m-44 -63 c0 -7 -7 -18 -16 -25 -13
-11 -19 -10 -36 8 -21 21 -21 22 -3 42 17 19 19 19 37 4 10 -10 18 -23 18 -29z
m170 9 c0 -8 -4 -12 -10 -9 -5 3 -10 10 -10 16 0 5 5 9 10 9 6 0 10 -7 10 -16z
m-17 -31 c8 -7 -11 -33 -24 -33 -5 0 -9 9 -9 20 0 19 20 27 33 13z m335 -33
c1 -8 -45 -62 -103 -120 -99 -99 -106 -104 -122 -87 -17 16 -12 23 87 122 99
100 131 119 138 85z m-383 -11 c10 -32 81 -105 115 -119 17 -7 30 -15 30 -19
0 -4 -22 -29 -49 -55 l-49 -49 -46 23 c-53 25 -93 72 -102 119 -6 29 -2 37 37
77 24 24 46 44 50 44 4 0 11 -10 14 -21z m100 10 c7 -10 -31 -59 -46 -59 -16
0 -18 34 -3 51 19 21 39 24 49 8z m369 -12 c8 -12 5 -21 -9 -37 l-19 -21 -20
20 c-19 20 -19 21 -1 41 21 23 33 22 49 -3z m-338 -66 c-20 -20 -28 -23 -38
-13 -18 18 29 67 49 50 12 -9 10 -16 -11 -37z m287 21 c16 -17 15 -20 -6 -40
l-24 -22 -18 20 c-17 19 -17 21 0 40 22 25 28 25 48 2z m101 -5 c8 -12 5 -21
-9 -37 l-19 -21 -20 20 c-19 20 -19 21 -1 41 21 23 33 22 49 -3z m-304 -16 c0
-17 -18 -21 -24 -6 -3 9 0 15 9 15 8 0 15 -4 15 -9z m-35 -42 c-6 -8 -45 0
-45 10 0 4 6 13 12 19 10 10 15 9 25 -4 7 -9 10 -20 8 -25z m188 13 c16 -17
15 -20 -6 -40 l-24 -22 -18 20 c-17 19 -17 21 0 40 22 25 28 25 48 2z m101 -5
c8 -12 5 -21 -9 -37 l-19 -21 -20 20 c-19 20 -19 21 -1 41 21 23 33 22 49 -3z
m100 1 c8 -13 6 -22 -9 -37 -17 -20 -19 -20 -37 -5 -21 20 -23 35 -6 52 16 16
38 12 52 -10z m-252 -45 c17 -15 17 -17 2 -35 -21 -22 -37 -23 -54 -3 -10 13
-10 19 5 35 22 24 24 24 47 3z m101 -1 c16 -17 15 -20 -6 -40 l-24 -22 -18 20
c-17 19 -17 21 0 40 22 25 28 25 48 2z m101 -4 c8 -14 7 -21 -6 -34 -30 -30
-75 9 -48 42 16 18 39 15 54 -8z m100 0 c8 -14 7 -21 -6 -34 -30 -30 -75 9
-48 42 16 18 39 15 54 -8z m-352 -45 c17 -15 17 -17 2 -35 -21 -22 -37 -23
-54 -3 -10 13 -10 19 5 35 22 24 24 24 47 3z m100 0 c17 -15 17 -17 2 -35 -21
-22 -37 -23 -54 -3 -10 13 -10 19 5 35 22 24 24 24 47 3z m102 -5 c8 -14 7
-21 -6 -34 -30 -30 -75 9 -48 42 16 18 39 15 54 -8z m100 0 c8 -14 7 -21 -6
-34 -30 -30 -75 9 -48 42 16 18 39 15 54 -8z m-350 -46 c15 -18 15 -20 -4 -37
-19 -17 -21 -17 -40 0 -19 17 -19 19 -4 37 10 10 20 18 24 18 4 0 14 -8 24
-18z m98 1 c17 -15 17 -17 2 -35 -21 -22 -37 -23 -54 -3 -10 13 -10 19 5 35
22 24 24 24 47 3z m102 -1 c15 -18 15 -20 -4 -37 -32 -29 -78 6 -50 40 17 20
33 19 54 -3z m100 -4 c8 -14 7 -21 -6 -34 -30 -30 -75 9 -48 42 16 18 39 15
54 -8z m-250 -46 c15 -18 15 -20 -4 -37 -19 -17 -21 -17 -40 0 -19 17 -19 19
-4 37 10 10 20 18 24 18 4 0 14 -8 24 -18z m100 0 c15 -18 15 -20 -4 -37 -32
-29 -78 6 -50 40 17 20 33 19 54 -3z m100 -4 c8 -14 7 -21 -6 -34 -30 -30 -75
9 -48 42 16 18 39 15 54 -8z m-150 -46 c15 -18 15 -20 -4 -37 -20 -18 -21 -18
-42 3 -18 17 -19 23 -8 36 17 21 33 20 54 -2z m100 0 c15 -18 15 -20 -4 -37
-32 -29 -78 6 -50 40 17 20 33 19 54 -3z m-50 -50 c15 -18 15 -20 -4 -37 -20
-18 -21 -18 -42 3 -18 17 -19 23 -8 36 17 21 33 20 54 -2z"/>
<path d="M1926 1928 c12 -22 47 -58 56 -58 16 0 -15 48 -39 59 -19 9 -23 8
-17 -1z"/>
<path d="M1030 1870 c0 -5 5 -10 10 -10 6 0 10 5 10 10 0 6 -4 10 -10 10 -5 0
-10 -4 -10 -10z"/>
<path d="M2410 1750 c0 -5 5 -10 10 -10 6 0 10 5 10 10 0 6 -4 10 -10 10 -5 0
-10 -4 -10 -10z"/>
<path d="M2820 1450 c0 -5 5 -10 10 -10 6 0 10 5 10 10 0 6 -4 10 -10 10 -5 0
-10 -4 -10 -10z"/>
<path d="M880 1310 c0 -5 5 -10 10 -10 6 0 10 5 10 10 0 6 -4 10 -10 10 -5 0
-10 -4 -10 -10z"/>
<path d="M1400 1160 c0 -5 5 -10 10 -10 6 0 10 5 10 10 0 6 -4 10 -10 10 -5 0
-10 -4 -10 -10z"/>
<path d="M2590 1010 c0 -5 5 -10 10 -10 6 0 10 5 10 10 0 6 -4 10 -10 10 -5 0
-10 -4 -10 -10z"/>
<path d="M2000 850 c0 -5 5 -10 10 -10 6 0 10 5 10 10 0 6 -4 10 -10 10 -5 0
-10 -4 -10 -10z"/>
<path d="M780 760 c0 -5 5 -10 10 -10 6 0 10 5 10 10 0 6 -4 10 -10 10 -5 0
-10 -4 -10 -10z"/>
<path d="M2420 520 c0 -5 5 -10 10 -10 6 0 10 5 10 10 0 6 -4 10 -10 10 -5 0
-10 -4 -10 -10z"/>
<path d="M1260 390 c0 -5 5 -10 10 -10 6 0 10 5 10 10 0 6 -4 10 -10 10 -5 0
-10 -4 -10 -10z"/>
<path d="M1880 300 c0 -5 5 -10 10 -10 6 0 10 5 10 10 0 6 -4 10 -10 10 -5 0
-10 -4 -10 -10z"/>
</g>
</svg>
